# xmcd
#
# Track frame offsets:
#	150
#	11720
#	24145
#	36845
#	53070
#	61475
#	73560
#	85635
#	96270
#	104947
#	118047
#	128985
#	143717
#	158407
#	170482
#	180957
#	191232
#	198485
#	209670
#	225490
#	238382
#	254642
#	264425
#	268362
#	277877
#	289820
#
# Disc length: 4038 seconds
#
# Revision: 1
# Processed by: cddbd v1.4PL0 Copyright (c) Steve Scherf et al.
# Submitted via: EasyCDDAExtractor 6.0.0.1
#
DISCID=860fc41a
DTITLE=Elvis Presley - Amazing Grace His Greatest Sacred Performances [CD2]
DYEAR=1994
DGENRE=Gospel
TTITLE0=We Call On Him
TTITLE1=You'll Never Walk Alone
TTITLE2=Only Believe
TTITLE3=Amazing Grace
TTITLE4=Miracle of the Rosary
TTITLE5=Lead Me, Guide Me
TTITLE6=He Touched Me
TTITLE7=I've Got Confidence
TTITLE8=An Evening Prayer
TTITLE9=Seeing Is Believing
TTITLE10=A Thing Called Love
TTITLE11=Put Your Hand In The Hand
TTITLE12=Reach Out To Jesus
TTITLE13=He Is My Everything
TTITLE14=There Is No God But God
TTITLE15=I, John
TTITLE16=Bosom Of Abraham
TTITLE17=Help Me
TTITLE18=If That Isn't Love
TTITLE19=Why Me Lord (Live Version)
TTITLE20=How Great Thou Art (Live Version)
TTITLE21=I, John (Previously Unreleased)
TTITLE22=Bosom Of Abraham (Previously Unreleased)
TTITLE23=You Better Run (Previously Unreleased)
TTITLE24=Lead Me, Guide Me (Previously Unreleased)
TTITLE25=Turn Your Eyes Upon Jesus/Nearer My God To Thee
EXTD=
EXTT0=
EXTT1=
EXTT2=
EXTT3=
EXTT4=
EXTT5=
EXTT6=
EXTT7=
EXTT8=
EXTT9=
EXTT10=
EXTT11=
EXTT12=
EXTT13=
EXTT14=
EXTT15=
EXTT16=
EXTT17=
EXTT18=
EXTT19=
EXTT20=
EXTT21=
EXTT22=
EXTT23=
EXTT24=
EXTT25=
PLAYORDER=
